<?xml version="1.0" standalone="no"?>
<!DOCTYPE svg PUBLIC "-//W3C//DTD SVG 20010904//EN"
 "http://www.w3.org/TR/2001/REC-SVG-20010904/DTD/svg10.dtd">
<svg version="1.0" xmlns="http://www.w3.org/2000/svg"
 width="585.000000pt" height="585.000000pt" viewBox="0 0 585.000000 585.000000"
 preserveAspectRatio="xMidYMid meet">
<metadata>
Created by potrace 1.14, written by Peter Selinger 2001-2017
</metadata>
<g transform="translate(0.000000,585.000000) scale(0.100000,-0.100000)"
fill="#000000" stroke="none">
<path d="M1672 4683 c-83 -28 -99 -66 -101 -228 -2 -125 -1 -131 25 -171 19
-29 39 -46 66 -55 35 -11 38 -15 39 -53 3 -116 2 -214 -4 -236 -4 -15 -76 -94
-167 -184 -89 -87 -170 -172 -181 -190 -16 -26 -19 -51 -19 -157 0 -138 5
-152 53 -143 l27 4 0 -65 c0 -66 -3 -72 -29 -56 -9 6 -22 6 -33 0 -17 -9 -18
-29 -16 -311 3 -274 5 -302 20 -312 13 -8 23 -8 38 2 19 12 20 10 20 -64 0
-67 -2 -75 -15 -64 -8 7 -25 10 -40 6 l-26 -7 1 -233 c1 -148 6 -254 14 -288
29 -126 132 -250 242 -292 88 -34 128 -37 454 -37 l329 0 12 -37 c19 -59 43
-97 99 -161 29 -33 105 -88 150 -108 90 -41 147 -36 138 13 -3 16 6 19 51 22
30 2 58 -1 64 -7 8 -8 8 -11 0 -11 -15 0 -8 -41 8 -51 6 -4 291 -6 633 -5 621
3 621 3 681 26 33 12 68 29 77 38 10 8 18 12 18 9 0 -9 45 29 96 80 36 37 67
90 108 181 15 35 13 220 -3 262 -75 195 -230 317 -419 329 -8 1 -3 16 16 44
32 48 89 170 96 207 18 94 21 124 19 195 -2 93 -7 143 -17 152 -3 3 -6 15 -6
25 0 10 -13 48 -30 84 -167 368 -585 517 -952 340 -40 -20 -73 -36 -74 -36 -1
0 -2 86 -2 192 -1 126 -6 203 -14 223 -6 16 -89 107 -184 200 -104 103 -173
179 -174 190 0 30 0 132 0 202 l1 63 42 19 c23 11 53 36 65 55 22 32 24 46 25
170 0 127 -1 137 -24 170 -48 70 -37 69 -631 70 -379 1 -542 -2 -566 -11z"/>
</g>
</svg>
